<?xml version="1.0" standalone="no"?>
<!DOCTYPE svg PUBLIC "-//W3C//DTD SVG 20010904//EN"
 "http://www.w3.org/TR/2001/REC-SVG-20010904/DTD/svg10.dtd">
<svg version="1.0" xmlns="http://www.w3.org/2000/svg"
 width="200.000000pt" height="200.000000pt" viewBox="0 0 200.000000 200.000000"
 preserveAspectRatio="xMidYMid meet">

<g transform="translate(0.000000,200.000000) scale(0.100000,-0.100000)"
fill="#000000" stroke="none">
<path d="M954 1936 c-56 -26 -76 -49 -122 -144 -49 -100 -101 -172 -182 -253
-143 -143 -276 -215 -505 -273 -58 -14 -91 -30 -122 -59 -22 -20 -23 -25 -23
-234 0 -190 2 -219 21 -273 49 -143 152 -297 263 -395 66 -58 131 -105 146
-105 6 0 10 -4 10 -8 0 -4 12 -13 28 -19 104 -45 134 -57 187 -74 101 -32 256
-41 677 -37 l396 3 43 30 c23 17 52 43 63 58 21 28 21 36 21 590 0 604 2 575
-51 697 -119 272 -324 442 -603 499 -134 27 -184 27 -247 -3z m486 -506 l0
-140 95 0 95 0 0 -95 0 -95 -95 0 -95 0 0 -131 c0 -201 31 -294 122 -359 23
-17 65 -35 99 -42 l59 -12 0 -93 0 -93 -44 0 c-135 0 -301 113 -375 255 l-36
70 -3 438 -3 437 91 0 90 0 0 -140z m-669 -151 c29 -6 77 -24 108 -40 30 -16
57 -29 58 -29 2 0 3 18 3 40 l0 40 95 0 95 0 0 -460 0 -460 -95 0 -95 0 0 41
0 40 -47 -25 c-27 -14 -70 -33 -98 -41 -68 -20 -203 -19 -268 2 -197 64 -326
239 -327 443 0 128 47 239 139 330 111 109 271 153 432 119z"/>
<path d="M544 1071 c-175 -89 -201 -312 -54 -444 64 -58 132 -75 227 -59 64
10 68 13 134 75 105 98 107 263 6 374 -46 50 -101 74 -182 80 -64 4 -76 2
-131 -26z"/>
</g>
</svg>
