<?xml version="1.0" standalone="no"?>
<!DOCTYPE svg PUBLIC "-//W3C//DTD SVG 20010904//EN"
 "http://www.w3.org/TR/2001/REC-SVG-20010904/DTD/svg10.dtd">
<svg version="1.0" xmlns="http://www.w3.org/2000/svg"
 width="1342.000000pt" height="246.000000pt" viewBox="0 0 1342.000000 246.000000"
 preserveAspectRatio="xMidYMid meet">

<g transform="translate(0.000000,246.000000) scale(0.100000,-0.100000)"
fill="#000000" stroke="none">
<path d="M523 2310 c-103 -24 -196 -99 -250 -202 l-28 -53 0 -865 0 -865 29
-58 c36 -71 108 -140 184 -175 l57 -27 2050 0 2050 0 57 27 c76 35 138 95 179
170 l34 63 0 860 0 860 -33 67 c-40 81 -110 148 -190 180 l-57 23 -2025 2
c-1114 0 -2039 -2 -2057 -7z m4105 -55 c68 -21 161 -105 193 -177 l24 -53 0
-835 0 -835 -27 -57 c-35 -75 -104 -141 -174 -167 -55 -21 -59 -21 -2079 -21
-2002 0 -2025 0 -2078 20 -73 27 -127 76 -168 152 l-34 63 0 840 c0 787 1 843
18 880 42 94 108 158 195 190 31 11 371 14 2058 14 1787 1 2026 -1 2072 -14z"/>
<path d="M2678 2196 c-101 -36 -172 -100 -217 -196 l-26 -55 0 -755 0 -755 33
-67 c36 -74 96 -133 170 -170 l47 -23 925 0 925 0 50 25 c67 33 135 103 171
175 l29 60 3 729 c3 812 4 791 -64 893 -43 62 -89 99 -163 130 l-56 23 -895
-1 c-711 0 -903 -3 -932 -13z m1140 -182 c103 -22 221 -84 298 -157 36 -33 72
-73 79 -87 13 -24 12 -31 -8 -68 -26 -48 -140 -190 -174 -215 -22 -17 -24 -17
-90 39 -101 86 -157 109 -273 109 -84 0 -102 -3 -152 -28 -69 -34 -120 -90
-161 -176 -26 -55 -31 -79 -35 -166 -9 -212 75 -352 243 -400 76 -23 204 -16
298 15 78 26 74 11 51 192 -8 70 -14 149 -12 175 l3 48 45 -1 c59 -2 304 -2
355 0 l40 1 0 -285 c0 -157 4 -338 9 -402 l9 -118 -23 0 c-13 0 -73 12 -133
26 l-110 26 -101 -31 c-137 -41 -211 -53 -341 -53 -136 1 -234 21 -340 72
-148 71 -263 186 -335 335 -55 114 -70 181 -77 335 -4 112 -2 152 15 233 68
325 315 560 626 594 97 11 208 6 294 -13z"/>
<path d="M1820 2005 c-4 -5 -81 -181 -170 -390 -89 -209 -168 -388 -175 -398
-11 -16 -13 -16 -27 0 -9 10 -87 187 -173 393 -87 206 -162 381 -168 388 -8
10 -52 13 -193 10 -100 -2 -185 -6 -189 -9 -3 -4 -1 -182 6 -395 9 -305 9
-466 -1 -746 -7 -196 -10 -364 -7 -372 6 -14 33 -16 190 -16 147 0 187 3 196
14 11 13 9 301 -3 629 -1 31 1 57 4 57 3 0 59 -134 124 -297 158 -396 161
-402 192 -413 36 -14 70 -12 87 4 8 8 31 61 52 118 86 235 227 613 231 617 12
13 13 -34 4 -335 -6 -181 -8 -341 -4 -357 l6 -27 201 2 202 3 -2 155 c-2 85
-4 430 -5 765 l-3 610 -183 0 c-110 0 -187 -4 -192 -10z"/>
<path d="M6143 2246 c-103 -33 -204 -122 -251 -224 l-27 -57 0 -725 0 -725 27
-58 c38 -80 117 -160 197 -200 l66 -32 3240 0 3240 0 66 32 c80 40 159 120
197 200 l27 58 0 725 0 725 -27 58 c-38 80 -117 160 -197 200 l-66 32 -3225 2
c-2647 1 -3233 -1 -3267 -11z m6468 -30 c139 -32 248 -144 278 -284 17 -82 15
-1319 -3 -1393 -26 -114 -115 -217 -224 -261 l-57 -23 -3210 0 -3210 0 -57 23
c-109 44 -198 147 -224 261 -18 74 -20 1311 -3 1393 29 138 138 251 273 284
78 19 6357 19 6437 0z"/>
<path d="M6253 2116 c-103 -33 -204 -122 -251 -224 l-27 -57 0 -610 0 -610 27
-58 c38 -80 117 -160 197 -200 l66 -32 3135 0 3135 0 66 32 c80 40 159 120
197 200 l27 58 0 610 0 610 -27 58 c-38 80 -117 160 -197 200 l-66 32 -3120 2
c-2561 1 -3128 -1 -3162 -11z m3247 -711 l0 -565 -68 0 -68 0 -13 50 -13 50
-28 -38 c-68 -94 -194 -96 -268 -6 -66 79 -101 268 -83 443 13 118 31 181 71
244 31 50 90 86 139 87 26 0 111 -37 111 -48 1 -4 11 -19 23 -34 l22 -27 -3
204 -3 205 91 0 90 0 0 -565z m-1689 526 c23 -23 29 -38 29 -71 0 -44 -13 -77
-39 -97 -21 -16 -91 -16 -112 0 -54 42 -51 158 5 185 41 21 86 14 117 -17z
m3040 0 c65 -65 21 -181 -68 -181 -21 0 -48 7 -60 15 -49 34 -49 146 0 180 37
26 94 19 128 -14z m-546 -37 c27 -9 59 -23 71 -31 l22 -14 -27 -74 c-15 -41
-30 -77 -33 -80 -3 -4 -20 0 -36 9 -210 109 -349 -77 -321 -430 15 -186 64
-264 168 -264 71 0 71 -1 71 126 l0 114 -60 0 -60 0 0 90 0 90 150 0 150 0 -2
-272 -3 -273 -65 -24 c-96 -35 -236 -40 -310 -12 -96 36 -167 129 -206 267
-26 91 -31 351 -9 451 52 238 190 361 390 348 34 -2 83 -11 110 -21z m-3490
-396 c48 -248 81 -394 85 -382 4 10 40 191 81 402 l73 382 143 0 143 0 0 -530
0 -530 -90 0 -90 0 -1 403 -1 402 -81 -402 -82 -403 -100 0 -100 0 -82 403
-81 402 -1 -402 -1 -403 -85 0 -85 0 0 530 0 530 138 0 138 0 79 -402z m1730
157 c48 -10 93 -62 115 -132 18 -59 20 -93 20 -374 l0 -309 -90 0 -90 0 0 273
c0 272 -6 332 -36 362 -38 38 -103 4 -126 -66 -6 -20 -13 -146 -15 -301 l-5
-268 -89 0 -89 0 0 405 0 405 74 0 74 0 6 -45 c4 -25 9 -45 12 -45 2 0 19 16
36 35 34 40 59 55 103 65 29 7 45 6 100 -5z m3025 -4 l135 -6 3 -57 3 -57 -41
-11 c-45 -12 -44 -8 -30 -81 15 -78 -3 -176 -43 -236 -41 -60 -92 -86 -177
-91 -70 -4 -90 -17 -90 -59 0 -33 29 -43 121 -43 101 0 153 -15 195 -56 40
-41 58 -112 52 -205 -13 -176 -132 -265 -342 -257 -82 3 -98 6 -141 33 -60 38
-88 88 -93 172 -5 79 23 143 79 180 l39 25 -24 29 c-47 55 -45 119 4 187 l29
40 -21 19 c-43 38 -62 101 -62 208 -1 112 18 172 71 221 42 39 134 68 178 56
11 -3 81 -8 155 -11z m718 -17 c28 -12 52 -27 52 -32 0 -13 -41 -115 -51 -126
-4 -5 -25 -2 -49 8 -77 31 -140 13 -140 -41 0 -38 16 -60 78 -104 137 -100
166 -146 166 -264 1 -127 -47 -203 -148 -235 -56 -18 -163 -14 -221 7 l-50 19
-3 87 c-1 48 0 87 3 87 3 0 23 -9 45 -20 92 -47 168 -43 190 10 22 52 -4 93
-102 162 -96 68 -138 141 -138 243 0 126 61 201 183 224 59 11 123 3 185 -25z
m-4453 -389 l0 -400 -90 0 -90 0 -3 390 c-1 214 0 396 3 403 3 9 28 12 92 10
l88 -3 0 -400z m3035 0 l0 -405 -90 0 -90 0 0 405 0 405 90 0 90 0 0 -405z"/>
<path d="M9185 1470 c-55 -61 -60 -369 -7 -440 14 -18 29 -25 52 -25 23 0 38
7 52 25 50 68 50 362 0 430 -25 33 -72 38 -97 10z"/>
<path d="M11382 1523 c-38 -15 -59 -175 -30 -238 13 -29 53 -43 77 -28 27 17
43 82 38 152 -7 85 -41 132 -85 114z"/>
<path d="M11311 809 c-27 -30 -35 -81 -17 -123 17 -41 67 -59 131 -47 76 14
105 48 105 121 0 56 -25 70 -122 70 -65 0 -80 -3 -97 -21z"/>
</g>
</svg>
