<svg width="145" height="56" viewBox="0 0 145 56" fill="none" xmlns="http://www.w3.org/2000/svg">
<path d="M0 38.3243L3.10714 33.4906C5.57612 35.7009 8.76968 36.9293 12.0833 36.9432C14.5 36.9432 16.5714 36.2527 16.5714 34.5264C16.5714 30.038 0.690476 32.8001 0.690476 22.7874C0.690476 17.9537 4.83333 14.1558 11.7381 14.1558C15.6366 14.1507 19.4172 15.4923 22.4405 17.9537L19.6786 22.7874C17.4192 20.9971 14.6207 20.0236 11.7381 20.0253C8.97619 20.0253 7.59524 21.0611 7.59524 22.4422C7.59524 27.2759 23.4762 23.4779 23.4762 33.8359C23.4762 39.0148 18.6429 42.4675 11.7381 42.4675C4.14286 42.4675 0 38.3243 0 38.3243Z" fill="#5500FF"/>
<path d="M0 38.3243L3.10714 33.4906C5.57612 35.7009 8.76968 36.9293 12.0833 36.9432C14.5 36.9432 16.5714 36.2527 16.5714 34.5264C16.5714 30.038 0.690476 32.8001 0.690476 22.7874C0.690476 17.9537 4.83333 14.1558 11.7381 14.1558C15.6366 14.1507 19.4172 15.4923 22.4405 17.9537L19.6786 22.7874C17.4192 20.9971 14.6207 20.0236 11.7381 20.0253C8.97619 20.0253 7.59524 21.0611 7.59524 22.4422C7.59524 27.2759 23.4762 23.4779 23.4762 33.8359C23.4762 39.0148 18.6429 42.4675 11.7381 42.4675C4.14286 42.4675 0 38.3243 0 38.3243Z" fill="url(#paint0_radial_390_3662)"/>
<path d="M0 38.3243L3.10714 33.4906C5.57612 35.7009 8.76968 36.9293 12.0833 36.9432C14.5 36.9432 16.5714 36.2527 16.5714 34.5264C16.5714 30.038 0.690476 32.8001 0.690476 22.7874C0.690476 17.9537 4.83333 14.1558 11.7381 14.1558C15.6366 14.1507 19.4172 15.4923 22.4405 17.9537L19.6786 22.7874C17.4192 20.9971 14.6207 20.0236 11.7381 20.0253C8.97619 20.0253 7.59524 21.0611 7.59524 22.4422C7.59524 27.2759 23.4762 23.4779 23.4762 33.8359C23.4762 39.0148 18.6429 42.4675 11.7381 42.4675C4.14286 42.4675 0 38.3243 0 38.3243Z" fill="url(#paint1_radial_390_3662)"/>
<path d="M36.25 4.83369C36.25 7.50327 34.086 9.66739 31.4167 9.66739C28.7473 9.66739 26.5833 7.50327 26.5833 4.83369C26.5833 2.16412 28.7473 0 31.4167 0C34.086 0 36.25 2.16412 36.25 4.83369Z" fill="#5500FF"/>
<path d="M36.25 4.83369C36.25 7.50327 34.086 9.66739 31.4167 9.66739C28.7473 9.66739 26.5833 7.50327 26.5833 4.83369C26.5833 2.16412 28.7473 0 31.4167 0C34.086 0 36.25 2.16412 36.25 4.83369Z" fill="url(#paint2_radial_390_3662)"/>
<path d="M36.25 4.83369C36.25 7.50327 34.086 9.66739 31.4167 9.66739C28.7473 9.66739 26.5833 7.50327 26.5833 4.83369C26.5833 2.16412 28.7473 0 31.4167 0C34.086 0 36.25 2.16412 36.25 4.83369Z" fill="url(#paint3_radial_390_3662)"/>
<path d="M34.869 14.8463V34.8717C34.869 38.6853 31.7777 41.7769 27.9643 41.7769V21.7516C27.9643 17.9379 31.0557 14.8463 34.869 14.8463Z" fill="#5500FF"/>
<path d="M34.869 14.8463V34.8717C34.869 38.6853 31.7777 41.7769 27.9643 41.7769V21.7516C27.9643 17.9379 31.0557 14.8463 34.869 14.8463Z" fill="url(#paint4_radial_390_3662)"/>
<path d="M34.869 14.8463V34.8717C34.869 38.6853 31.7777 41.7769 27.9643 41.7769V21.7516C27.9643 17.9379 31.0557 14.8463 34.869 14.8463Z" fill="url(#paint5_radial_390_3662)"/>
<path fill-rule="evenodd" clip-rule="evenodd" d="M53.1667 14.1558C49.5041 14.1558 45.9916 15.6109 43.4018 18.2008C40.8121 20.7908 39.3571 24.3036 39.3571 27.9664C39.3571 31.6292 40.8121 35.1419 43.4018 37.7319C45.9916 40.3219 49.5041 41.7769 53.1667 41.7769C55.6117 41.7769 57.99 41.1285 60.0714 39.9267L60.0714 41.7769C60.0682 43.33 59.5416 44.8367 58.5765 46.0536C57.6115 47.2704 56.2645 48.1264 54.7531 48.4832C53.2416 48.8401 51.654 48.6769 50.2467 48.0201C48.8712 47.3782 47.7464 46.3013 47.0451 44.9572L40.9109 48.144C42.3101 50.8387 44.5595 52.9991 47.3129 54.2878C50.1308 55.6068 53.3115 55.9354 56.3395 55.2205C59.3676 54.5056 62.0655 52.789 63.9961 50.349C65.9266 47.9089 66.9768 44.8884 66.9762 41.7769V14.8463C64.9136 14.8463 63.0621 15.7509 61.7969 17.1849C59.3596 15.2335 56.3187 14.1558 53.1667 14.1558ZM46.2619 27.9664C46.2619 24.1527 49.3533 21.0611 53.1667 21.0611C56.9801 21.0611 60.0714 24.1527 60.0714 27.9664C60.0714 31.7801 56.9801 34.8717 53.1667 34.8717C49.3533 34.8717 46.2619 31.7801 46.2619 27.9664Z" fill="#5500FF"/>
<path fill-rule="evenodd" clip-rule="evenodd" d="M53.1667 14.1558C49.5041 14.1558 45.9916 15.6109 43.4018 18.2008C40.8121 20.7908 39.3571 24.3036 39.3571 27.9664C39.3571 31.6292 40.8121 35.1419 43.4018 37.7319C45.9916 40.3219 49.5041 41.7769 53.1667 41.7769C55.6117 41.7769 57.99 41.1285 60.0714 39.9267L60.0714 41.7769C60.0682 43.33 59.5416 44.8367 58.5765 46.0536C57.6115 47.2704 56.2645 48.1264 54.7531 48.4832C53.2416 48.8401 51.654 48.6769 50.2467 48.0201C48.8712 47.3782 47.7464 46.3013 47.0451 44.9572L40.9109 48.144C42.3101 50.8387 44.5595 52.9991 47.3129 54.2878C50.1308 55.6068 53.3115 55.9354 56.3395 55.2205C59.3676 54.5056 62.0655 52.789 63.9961 50.349C65.9266 47.9089 66.9768 44.8884 66.9762 41.7769V14.8463C64.9136 14.8463 63.0621 15.7509 61.7969 17.1849C59.3596 15.2335 56.3187 14.1558 53.1667 14.1558ZM46.2619 27.9664C46.2619 24.1527 49.3533 21.0611 53.1667 21.0611C56.9801 21.0611 60.0714 24.1527 60.0714 27.9664C60.0714 31.7801 56.9801 34.8717 53.1667 34.8717C49.3533 34.8717 46.2619 31.7801 46.2619 27.9664Z" fill="url(#paint6_radial_390_3662)"/>
<path fill-rule="evenodd" clip-rule="evenodd" d="M53.1667 14.1558C49.5041 14.1558 45.9916 15.6109 43.4018 18.2008C40.8121 20.7908 39.3571 24.3036 39.3571 27.9664C39.3571 31.6292 40.8121 35.1419 43.4018 37.7319C45.9916 40.3219 49.5041 41.7769 53.1667 41.7769C55.6117 41.7769 57.99 41.1285 60.0714 39.9267L60.0714 41.7769C60.0682 43.33 59.5416 44.8367 58.5765 46.0536C57.6115 47.2704 56.2645 48.1264 54.7531 48.4832C53.2416 48.8401 51.654 48.6769 50.2467 48.0201C48.8712 47.3782 47.7464 46.3013 47.0451 44.9572L40.9109 48.144C42.3101 50.8387 44.5595 52.9991 47.3129 54.2878C50.1308 55.6068 53.3115 55.9354 56.3395 55.2205C59.3676 54.5056 62.0655 52.789 63.9961 50.349C65.9266 47.9089 66.9768 44.8884 66.9762 41.7769V14.8463C64.9136 14.8463 63.0621 15.7509 61.7969 17.1849C59.3596 15.2335 56.3187 14.1558 53.1667 14.1558ZM46.2619 27.9664C46.2619 24.1527 49.3533 21.0611 53.1667 21.0611C56.9801 21.0611 60.0714 24.1527 60.0714 27.9664C60.0714 31.7801 56.9801 34.8717 53.1667 34.8717C49.3533 34.8717 46.2619 31.7801 46.2619 27.9664Z" fill="url(#paint7_radial_390_3662)"/>
<path d="M83.8929 42.4675C78.0238 42.4675 72.5 40.0506 72.5 31.7643V14.8463H79.4048V31.7643C79.4048 32.9547 79.8776 34.0963 80.7193 34.9381C81.561 35.7798 82.7025 36.2527 83.8929 36.2527C85.0832 36.2527 86.2247 35.7798 87.0664 34.9381C87.9081 34.0963 88.381 32.9547 88.381 31.7643V14.8463H95.2857V31.7643C95.2857 40.0506 89.7619 42.4675 83.8929 42.4675Z" fill="#5500FF"/>
<path d="M83.8929 42.4675C78.0238 42.4675 72.5 40.0506 72.5 31.7643V14.8463H79.4048V31.7643C79.4048 32.9547 79.8776 34.0963 80.7193 34.9381C81.561 35.7798 82.7025 36.2527 83.8929 36.2527C85.0832 36.2527 86.2247 35.7798 87.0664 34.9381C87.9081 34.0963 88.381 32.9547 88.381 31.7643V14.8463H95.2857V31.7643C95.2857 40.0506 89.7619 42.4675 83.8929 42.4675Z" fill="url(#paint8_radial_390_3662)"/>
<path d="M83.8929 42.4675C78.0238 42.4675 72.5 40.0506 72.5 31.7643V14.8463H79.4048V31.7643C79.4048 32.9547 79.8776 34.0963 80.7193 34.9381C81.561 35.7798 82.7025 36.2527 83.8929 36.2527C85.0832 36.2527 86.2247 35.7798 87.0664 34.9381C87.9081 34.0963 88.381 32.9547 88.381 31.7643V14.8463H95.2857V31.7643C95.2857 40.0506 89.7619 42.4675 83.8929 42.4675Z" fill="url(#paint9_radial_390_3662)"/>
<path d="M113.238 35.5622H111.167C110.8 35.5622 110.449 35.4167 110.19 35.1577C109.931 34.8987 109.786 34.5474 109.786 34.1811V21.0611H113.238V14.8463H109.786V7.94107C105.972 7.94107 102.881 11.0327 102.881 14.8463H99.7738V21.0611H102.881V36.9432C102.881 38.2252 103.39 39.4547 104.297 40.3612C105.203 41.2677 106.432 41.7769 107.714 41.7769H113.238V35.5622Z" fill="#5500FF"/>
<path d="M113.238 35.5622H111.167C110.8 35.5622 110.449 35.4167 110.19 35.1577C109.931 34.8987 109.786 34.5474 109.786 34.1811V21.0611H113.238V14.8463H109.786V7.94107C105.972 7.94107 102.881 11.0327 102.881 14.8463H99.7738V21.0611H102.881V36.9432C102.881 38.2252 103.39 39.4547 104.297 40.3612C105.203 41.2677 106.432 41.7769 107.714 41.7769H113.238V35.5622Z" fill="url(#paint10_radial_390_3662)"/>
<path d="M113.238 35.5622H111.167C110.8 35.5622 110.449 35.4167 110.19 35.1577C109.931 34.8987 109.786 34.5474 109.786 34.1811V21.0611H113.238V14.8463H109.786V7.94107C105.972 7.94107 102.881 11.0327 102.881 14.8463H99.7738V21.0611H102.881V36.9432C102.881 38.2252 103.39 39.4547 104.297 40.3612C105.203 41.2677 106.432 41.7769 107.714 41.7769H113.238V35.5622Z" fill="url(#paint11_radial_390_3662)"/>
<path d="M131.19 14.1558C127.528 14.1558 124.015 15.6109 121.426 18.2008C118.836 20.7908 117.381 24.3036 117.381 27.9664V36.598C119.212 36.598 120.968 35.8705 122.263 34.5755C123.558 33.2805 124.286 31.5241 124.286 29.6927V27.9664C124.286 26.6006 124.691 25.2656 125.449 24.13C126.208 22.9944 127.286 22.1094 128.548 21.5867C129.81 21.0641 131.198 20.9273 132.538 21.1938C133.877 21.4602 135.107 22.1179 136.073 23.0836C137.039 24.0493 137.696 25.2797 137.963 26.6192C138.229 27.9587 138.092 29.3471 137.57 30.6089C137.047 31.8707 136.162 32.9491 135.027 33.7079C133.891 34.4667 132.556 34.8717 131.19 34.8717H129.464C127.633 34.8717 125.877 35.5992 124.582 36.8942C123.287 38.1891 122.56 39.9455 122.56 41.7769H131.19C134.853 41.7769 138.366 40.3219 140.955 37.7319C143.545 35.1419 145 31.6292 145 27.9664C145 24.3036 143.545 20.7908 140.955 18.2008C138.366 15.6109 134.853 14.1558 131.19 14.1558Z" fill="#5500FF"/>
<path d="M131.19 14.1558C127.528 14.1558 124.015 15.6109 121.426 18.2008C118.836 20.7908 117.381 24.3036 117.381 27.9664V36.598C119.212 36.598 120.968 35.8705 122.263 34.5755C123.558 33.2805 124.286 31.5241 124.286 29.6927V27.9664C124.286 26.6006 124.691 25.2656 125.449 24.13C126.208 22.9944 127.286 22.1094 128.548 21.5867C129.81 21.0641 131.198 20.9273 132.538 21.1938C133.877 21.4602 135.107 22.1179 136.073 23.0836C137.039 24.0493 137.696 25.2797 137.963 26.6192C138.229 27.9587 138.092 29.3471 137.57 30.6089C137.047 31.8707 136.162 32.9491 135.027 33.7079C133.891 34.4667 132.556 34.8717 131.19 34.8717H129.464C127.633 34.8717 125.877 35.5992 124.582 36.8942C123.287 38.1891 122.56 39.9455 122.56 41.7769H131.19C134.853 41.7769 138.366 40.3219 140.955 37.7319C143.545 35.1419 145 31.6292 145 27.9664C145 24.3036 143.545 20.7908 140.955 18.2008C138.366 15.6109 134.853 14.1558 131.19 14.1558Z" fill="url(#paint12_radial_390_3662)"/>
<path d="M131.19 14.1558C127.528 14.1558 124.015 15.6109 121.426 18.2008C118.836 20.7908 117.381 24.3036 117.381 27.9664V36.598C119.212 36.598 120.968 35.8705 122.263 34.5755C123.558 33.2805 124.286 31.5241 124.286 29.6927V27.9664C124.286 26.6006 124.691 25.2656 125.449 24.13C126.208 22.9944 127.286 22.1094 128.548 21.5867C129.81 21.0641 131.198 20.9273 132.538 21.1938C133.877 21.4602 135.107 22.1179 136.073 23.0836C137.039 24.0493 137.696 25.2797 137.963 26.6192C138.229 27.9587 138.092 29.3471 137.57 30.6089C137.047 31.8707 136.162 32.9491 135.027 33.7079C133.891 34.4667 132.556 34.8717 131.19 34.8717H129.464C127.633 34.8717 125.877 35.5992 124.582 36.8942C123.287 38.1891 122.56 39.9455 122.56 41.7769H131.19C134.853 41.7769 138.366 40.3219 140.955 37.7319C143.545 35.1419 145 31.6292 145 27.9664C145 24.3036 143.545 20.7908 140.955 18.2008C138.366 15.6109 134.853 14.1558 131.19 14.1558Z" fill="url(#paint13_radial_390_3662)"/>
<defs>
<radialGradient id="paint0_radial_390_3662" cx="0" cy="0" r="1" gradientUnits="userSpaceOnUse" gradientTransform="translate(0 55.59) rotate(-90) scale(55.59 72.7302)">
<stop stop-color="#4488FF"/>
<stop offset="1" stop-color="#4488FF" stop-opacity="0"/>
</radialGradient>
<radialGradient id="paint1_radial_390_3662" cx="0" cy="0" r="1" gradientUnits="userSpaceOnUse" gradientTransform="translate(145) rotate(90) scale(55.59 72.2698)">
<stop stop-color="#FF99BB"/>
<stop offset="1" stop-color="#FF99BB" stop-opacity="0"/>
</radialGradient>
<radialGradient id="paint2_radial_390_3662" cx="0" cy="0" r="1" gradientUnits="userSpaceOnUse" gradientTransform="translate(0 55.59) rotate(-90) scale(55.59 72.7302)">
<stop stop-color="#4488FF"/>
<stop offset="1" stop-color="#4488FF" stop-opacity="0"/>
</radialGradient>
<radialGradient id="paint3_radial_390_3662" cx="0" cy="0" r="1" gradientUnits="userSpaceOnUse" gradientTransform="translate(145) rotate(90) scale(55.59 72.2698)">
<stop stop-color="#FF99BB"/>
<stop offset="1" stop-color="#FF99BB" stop-opacity="0"/>
</radialGradient>
<radialGradient id="paint4_radial_390_3662" cx="0" cy="0" r="1" gradientUnits="userSpaceOnUse" gradientTransform="translate(0 55.59) rotate(-90) scale(55.59 72.7302)">
<stop stop-color="#4488FF"/>
<stop offset="1" stop-color="#4488FF" stop-opacity="0"/>
</radialGradient>
<radialGradient id="paint5_radial_390_3662" cx="0" cy="0" r="1" gradientUnits="userSpaceOnUse" gradientTransform="translate(145) rotate(90) scale(55.59 72.2698)">
<stop stop-color="#FF99BB"/>
<stop offset="1" stop-color="#FF99BB" stop-opacity="0"/>
</radialGradient>
<radialGradient id="paint6_radial_390_3662" cx="0" cy="0" r="1" gradientUnits="userSpaceOnUse" gradientTransform="translate(0 55.59) rotate(-90) scale(55.59 72.7302)">
<stop stop-color="#4488FF"/>
<stop offset="1" stop-color="#4488FF" stop-opacity="0"/>
</radialGradient>
<radialGradient id="paint7_radial_390_3662" cx="0" cy="0" r="1" gradientUnits="userSpaceOnUse" gradientTransform="translate(145) rotate(90) scale(55.59 72.2698)">
<stop stop-color="#FF99BB"/>
<stop offset="1" stop-color="#FF99BB" stop-opacity="0"/>
</radialGradient>
<radialGradient id="paint8_radial_390_3662" cx="0" cy="0" r="1" gradientUnits="userSpaceOnUse" gradientTransform="translate(0 55.59) rotate(-90) scale(55.59 72.7302)">
<stop stop-color="#4488FF"/>
<stop offset="1" stop-color="#4488FF" stop-opacity="0"/>
</radialGradient>
<radialGradient id="paint9_radial_390_3662" cx="0" cy="0" r="1" gradientUnits="userSpaceOnUse" gradientTransform="translate(145) rotate(90) scale(55.59 72.2698)">
<stop stop-color="#FF99BB"/>
<stop offset="1" stop-color="#FF99BB" stop-opacity="0"/>
</radialGradient>
<radialGradient id="paint10_radial_390_3662" cx="0" cy="0" r="1" gradientUnits="userSpaceOnUse" gradientTransform="translate(0 55.59) rotate(-90) scale(55.59 72.7302)">
<stop stop-color="#4488FF"/>
<stop offset="1" stop-color="#4488FF" stop-opacity="0"/>
</radialGradient>
<radialGradient id="paint11_radial_390_3662" cx="0" cy="0" r="1" gradientUnits="userSpaceOnUse" gradientTransform="translate(145) rotate(90) scale(55.59 72.2698)">
<stop stop-color="#FF99BB"/>
<stop offset="1" stop-color="#FF99BB" stop-opacity="0"/>
</radialGradient>
<radialGradient id="paint12_radial_390_3662" cx="0" cy="0" r="1" gradientUnits="userSpaceOnUse" gradientTransform="translate(0 55.59) rotate(-90) scale(55.59 72.7302)">
<stop stop-color="#4488FF"/>
<stop offset="1" stop-color="#4488FF" stop-opacity="0"/>
</radialGradient>
<radialGradient id="paint13_radial_390_3662" cx="0" cy="0" r="1" gradientUnits="userSpaceOnUse" gradientTransform="translate(145) rotate(90) scale(55.59 72.2698)">
<stop stop-color="#FF99BB"/>
<stop offset="1" stop-color="#FF99BB" stop-opacity="0"/>
</radialGradient>
</defs>
</svg>
