<?xml version="1.0" encoding="UTF-8" standalone="no"?>
<!DOCTYPE svg PUBLIC "-//W3C//DTD SVG 1.1//EN" "http://www.w3.org/Graphics/SVG/1.1/DTD/svg11.dtd">
<svg width="100%" height="100%" viewBox="0 0 2000 500" version="1.1" xmlns="http://www.w3.org/2000/svg" xmlns:xlink="http://www.w3.org/1999/xlink" xml:space="preserve" xmlns:serif="http://www.serif.com/" style="fill-rule:evenodd;clip-rule:evenodd;stroke-linejoin:round;stroke-miterlimit:1.41421;">
    <g transform="matrix(12.763,0,0,12.763,2.29719,4.59238)">
        <path d="M8.487,19.081L2.541,25.576C2.127,26.057 1.654,26.142 1.235,26.148C0.799,26.154 0.174,25.824 0.024,25.334C-0.075,25.01 0.147,24.61 0.329,24.417L6.829,17.496L0.534,10.954C0.294,10.715 0.125,10.442 0.175,10.122C0.268,9.541 0.893,9.246 1.359,9.246C1.871,9.246 2.299,9.307 2.72,9.823L8.456,15.897L14.21,9.802C14.674,9.246 15.023,9.249 15.535,9.248C16.127,9.246 16.592,9.497 16.763,10.034C16.862,10.342 16.815,10.526 16.443,10.979L10.121,17.549L16.594,24.445C16.881,24.806 16.939,25.076 16.939,25.328C16.939,25.854 16.221,26.154 15.674,26.154C15.255,26.154 14.75,25.93 14.42,25.562L8.487,19.081Z" style="fill:rgb(88,89,91);fill-rule:nonzero;"/>
        <path d="M137.324,15.981C137.324,15.981 138.028,16.668 138.028,17.586C138.028,18.387 137.337,19.055 137.337,19.055L131.255,25.686C131.013,25.949 130.78,26.154 130.36,26.154C129.522,26.154 128.871,25.65 128.871,25.001C128.871,24.749 128.964,24.498 129.149,24.318L135.532,17.515L129.336,11.072C129.197,10.891 129.057,10.711 129.057,10.387C129.057,9.74 129.533,9.236 130.371,9.236C130.509,9.236 130.981,9.236 131.385,9.704L137.324,15.981Z" style="fill:rgb(147,149,152);fill-rule:nonzero;"/>
        <path d="M146.481,15.981C146.481,15.981 147.186,16.668 147.186,17.586C147.186,18.387 146.494,19.055 146.494,19.055L140.412,25.686C140.17,25.949 139.938,26.154 139.519,26.154C138.681,26.154 138.028,25.65 138.028,25.001C138.028,24.749 138.121,24.498 138.308,24.318L144.689,17.515L138.493,11.072C138.354,10.891 138.214,10.711 138.214,10.387C138.214,9.74 138.69,9.236 139.529,9.236C139.666,9.236 140.139,9.236 140.542,9.704L146.481,15.981Z" style="fill:rgb(147,149,152);fill-rule:nonzero;"/>
        <path d="M155.639,15.981C155.639,15.981 156.343,16.668 156.343,17.586C156.343,18.387 155.651,19.055 155.651,19.055L149.569,25.686C149.327,25.949 149.095,26.154 148.676,26.154C147.838,26.154 147.186,25.65 147.186,25.001C147.186,24.749 147.278,24.498 147.465,24.318L153.847,17.515L147.65,11.072C147.512,10.891 147.371,10.711 147.371,10.387C147.371,9.74 147.848,9.236 148.687,9.236C148.823,9.236 149.296,9.236 149.699,9.704L155.639,15.981Z" style="fill:rgb(147,149,152);fill-rule:nonzero;"/>
        <path d="M21.068,5.745C21.068,5.132 21.608,4.592 22.22,4.592C22.868,4.592 23.372,5.132 23.372,5.745L23.372,9.524L25.711,9.524C26.324,9.524 26.792,9.992 26.792,10.604C26.792,11.215 26.324,11.683 25.711,11.683L23.372,11.683L23.372,21.619C23.372,23.167 24.236,23.994 25.46,23.994C26.072,23.994 26.576,24.461 26.576,25.074C26.576,25.686 26.072,26.154 25.46,26.154C22.616,26.154 21.068,24.246 21.068,21.619L21.068,11.683L19.665,11.683C19.052,11.683 18.585,11.215 18.585,10.604C18.585,9.992 19.052,9.524 19.665,9.524L21.068,9.524L21.068,5.745Z" style="fill:rgb(88,89,91);fill-rule:nonzero;"/>
        <path d="M36.547,11.108C33.416,11.108 31.688,13.123 31.472,16.327L41.155,16.327C41.155,13.735 40.255,11.108 36.547,11.108ZM36.547,9.02C42.307,9.02 43.422,13.591 43.422,16.039C43.422,17.082 43.422,18.342 41.983,18.342L31.472,18.342C31.472,21.906 33.524,24.209 36.908,24.209C38.996,24.209 40.219,23.418 41.227,22.663C41.443,22.518 41.586,22.446 41.875,22.446C42.451,22.446 42.918,22.914 42.918,23.49C42.918,23.886 42.739,24.102 42.523,24.318C41.983,24.858 40.111,26.334 36.908,26.334C32.12,26.334 29.132,23.706 29.132,17.659C29.132,12.116 31.868,9.02 36.547,9.02Z" style="fill:rgb(88,89,91);fill-rule:nonzero;"/>
        <path d="M60.702,15.391L60.702,25.001C60.702,25.65 60.198,26.154 59.55,26.154C58.902,26.154 58.398,25.65 58.398,25.001L58.398,15.859C58.398,13.015 57.571,11.072 54.079,11.072C50.515,11.072 49.292,13.231 49.292,16.111L49.292,25.001C49.292,25.65 48.788,26.154 48.139,26.154C47.492,26.154 46.988,25.65 46.988,25.001L46.988,10.387C46.988,9.74 47.492,9.236 48.139,9.236C48.788,9.236 49.292,9.74 49.292,10.387L49.292,11.539C49.975,10.171 51.739,9.02 54.079,9.02C59.622,9.02 60.702,12.331 60.702,15.391Z" style="fill:rgb(88,89,91);fill-rule:nonzero;"/>
        <path d="M76.075,14.275C76.075,14.275 74.707,11.108 71.323,11.108C68.047,11.108 66.248,13.231 66.248,17.659C66.248,22.158 68.011,24.246 71.323,24.246C74.094,24.246 76.075,22.663 76.075,19.243L76.075,14.275ZM76.075,11.36L76.075,1.389C76.075,0.741 76.579,0.237 77.226,0.237C77.875,0.237 78.378,0.741 78.378,1.389L78.378,19.243C78.378,23.994 75.426,26.334 71.323,26.334C66.679,26.334 63.944,23.562 63.944,17.659C63.944,11.755 66.536,9.02 71.179,9.02C73.483,9.02 75.247,10.207 76.075,11.36Z" style="fill:rgb(88,89,91);fill-rule:nonzero;"/>
        <path d="M85.003,10.387L85.003,19.783C85.003,22.123 85.759,24.138 89.395,24.138C93.031,24.138 93.787,22.123 93.787,19.783L93.787,10.387C93.787,9.74 94.327,9.236 94.974,9.236C95.586,9.236 96.09,9.74 96.09,10.387L96.09,19.783C96.09,23.202 94.974,26.334 89.395,26.334C83.852,26.334 82.7,23.202 82.7,19.783L82.7,10.387C82.7,9.74 83.204,9.236 83.852,9.236C84.463,9.236 85.003,9.74 85.003,10.387Z" style="fill:rgb(88,89,91);fill-rule:nonzero;"/>
        <path d="M125.177,15.391L125.177,25.001C125.177,25.65 124.673,26.154 124.025,26.154C123.377,26.154 122.873,25.65 122.873,25.001L122.873,15.859C122.873,13.015 121.865,11.072 118.374,11.072C115.278,11.072 113.874,12.727 113.874,15.391L113.874,25.001C113.874,25.65 113.37,26.154 112.723,26.154C112.074,26.154 111.57,25.65 111.57,25.001L111.57,15.859C111.57,13.015 110.671,11.072 107.144,11.072C103.796,11.072 102.716,13.087 102.716,16.111L102.716,25.001C102.716,25.65 102.212,26.154 101.563,26.154C100.916,26.154 100.412,25.65 100.412,25.001L100.412,10.387C100.412,9.74 100.916,9.236 101.563,9.236C102.212,9.236 102.716,9.74 102.716,10.387L102.716,11.539C103.327,10.207 105.056,9.02 107.396,9.02C110.347,9.02 112.255,10.1 113.118,11.539C114.019,10.135 115.603,9.02 118.374,9.02C123.917,9.02 125.177,12.331 125.177,15.391Z" style="fill:rgb(88,89,91);fill-rule:nonzero;"/>
        <path d="M35.625,33.928C35.625,35.608 36.455,36.338 37.785,36.338C38.675,36.338 39.195,35.928 39.345,35.778C39.405,35.718 39.455,35.658 39.455,35.548C39.455,35.388 39.325,35.258 39.165,35.258C39.085,35.258 39.045,35.278 38.985,35.318C38.705,35.528 38.365,35.748 37.785,35.748C36.845,35.748 36.275,35.108 36.275,34.118L39.195,34.118C39.595,34.118 39.595,33.768 39.595,33.478C39.595,32.798 39.285,31.528 37.685,31.528C36.385,31.528 35.625,32.388 35.625,33.928ZM38.965,33.558L36.275,33.558C36.335,32.668 36.815,32.108 37.685,32.108C38.715,32.108 38.965,32.838 38.965,33.558Z" style="fill:rgb(118,120,123);fill-rule:nonzero;"/>
        <path d="M43.245,36.159C43.305,36.249 43.415,36.289 43.505,36.289C43.685,36.289 43.825,36.149 43.825,35.969C43.825,35.899 43.805,35.829 43.765,35.779L42.395,33.889L43.725,32.099C43.755,32.049 43.785,31.999 43.785,31.909C43.785,31.729 43.645,31.589 43.465,31.589C43.355,31.589 43.265,31.639 43.205,31.719L41.995,33.379L40.785,31.719C40.725,31.639 40.635,31.589 40.525,31.589C40.345,31.589 40.205,31.729 40.205,31.909C40.205,31.999 40.235,32.049 40.265,32.099L41.595,33.889L40.225,35.779C40.185,35.829 40.165,35.899 40.165,35.969C40.165,36.149 40.305,36.289 40.485,36.289C40.575,36.289 40.685,36.249 40.745,36.159L41.995,34.389L43.245,36.159Z" style="fill:rgb(118,120,123);fill-rule:nonzero;"/>
        <path d="M44.405,33.929C44.405,35.569 45.175,36.339 46.465,36.339C47.275,36.339 47.755,35.979 47.975,35.799C48.075,35.709 48.105,35.639 48.105,35.549C48.105,35.389 47.975,35.259 47.815,35.259C47.745,35.259 47.695,35.279 47.625,35.329C47.395,35.499 47.045,35.759 46.465,35.759C45.545,35.759 45.055,35.179 45.055,33.929C45.055,32.699 45.545,32.109 46.465,32.109C47.125,32.109 47.395,32.409 47.545,32.579C47.615,32.659 47.685,32.699 47.785,32.699C47.945,32.699 48.075,32.579 48.075,32.409C48.075,32.339 48.055,32.289 48.005,32.219C47.845,31.999 47.355,31.529 46.465,31.529C45.175,31.529 44.405,32.289 44.405,33.929Z" style="fill:rgb(118,120,123);fill-rule:nonzero;"/>
        <path d="M48.815,33.929C48.815,35.609 49.645,36.339 50.975,36.339C51.865,36.339 52.385,35.929 52.535,35.779C52.595,35.719 52.645,35.659 52.645,35.549C52.645,35.389 52.515,35.259 52.355,35.259C52.275,35.259 52.235,35.279 52.175,35.319C51.895,35.529 51.555,35.749 50.975,35.749C50.035,35.749 49.465,35.109 49.465,34.119L52.385,34.119C52.785,34.119 52.785,33.769 52.785,33.479C52.785,32.799 52.475,31.529 50.875,31.529C49.575,31.529 48.815,32.389 48.815,33.929ZM52.155,33.559L49.465,33.559C49.525,32.669 50.005,32.109 50.875,32.109C51.905,32.109 52.155,32.839 52.155,33.559Z" style="fill:rgb(118,120,123);fill-rule:nonzero;"/>
        <path d="M54.096,29.089C53.926,29.089 53.776,29.239 53.776,29.409L53.776,35.119C53.776,35.889 54.146,36.289 54.816,36.289C54.976,36.289 55.116,36.159 55.116,35.989C55.116,35.819 54.976,35.689 54.816,35.689C54.546,35.689 54.416,35.519 54.416,35.119L54.416,29.409C54.416,29.239 54.276,29.089 54.096,29.089Z" style="fill:rgb(118,120,123);fill-rule:nonzero;"/>
        <path d="M56.285,29.089C56.115,29.089 55.965,29.239 55.965,29.409L55.965,35.119C55.965,35.889 56.335,36.289 57.005,36.289C57.165,36.289 57.305,36.159 57.305,35.989C57.305,35.819 57.165,35.689 57.005,35.689C56.735,35.689 56.605,35.519 56.605,35.119L56.605,29.409C56.605,29.239 56.465,29.089 56.285,29.089Z" style="fill:rgb(118,120,123);fill-rule:nonzero;"/>
        <path d="M57.854,33.929C57.854,35.609 58.684,36.339 60.014,36.339C60.904,36.339 61.424,35.929 61.574,35.779C61.634,35.719 61.684,35.659 61.684,35.549C61.684,35.389 61.554,35.259 61.394,35.259C61.314,35.259 61.274,35.279 61.214,35.319C60.934,35.529 60.594,35.749 60.014,35.749C59.074,35.749 58.504,35.109 58.504,34.119L61.424,34.119C61.824,34.119 61.824,33.769 61.824,33.479C61.824,32.799 61.514,31.529 59.914,31.529C58.614,31.529 57.854,32.389 57.854,33.929ZM61.194,33.559L58.504,33.559C58.564,32.669 59.044,32.109 59.914,32.109C60.944,32.109 61.194,32.839 61.194,33.559Z" style="fill:rgb(118,120,123);fill-rule:nonzero;"/>
        <path d="M64.785,31.529C64.135,31.529 63.645,31.849 63.455,32.229L63.455,31.909C63.455,31.729 63.315,31.589 63.135,31.589C62.955,31.589 62.815,31.729 62.815,31.909L62.815,35.969C62.815,36.149 62.955,36.289 63.135,36.289C63.315,36.289 63.455,36.149 63.455,35.969L63.455,33.499C63.455,32.699 63.795,32.099 64.785,32.099C65.755,32.099 65.985,32.639 65.985,33.429L65.985,35.969C65.985,36.149 66.125,36.289 66.305,36.289C66.485,36.289 66.625,36.149 66.625,35.969L66.625,33.299C66.625,32.449 66.325,31.529 64.785,31.529Z" style="fill:rgb(118,120,123);fill-rule:nonzero;"/>
        <path d="M67.524,33.929C67.524,35.569 68.294,36.339 69.584,36.339C70.394,36.339 70.874,35.979 71.094,35.799C71.194,35.709 71.224,35.639 71.224,35.549C71.224,35.389 71.094,35.259 70.934,35.259C70.864,35.259 70.814,35.279 70.744,35.329C70.514,35.499 70.164,35.759 69.584,35.759C68.664,35.759 68.174,35.179 68.174,33.929C68.174,32.699 68.664,32.109 69.584,32.109C70.244,32.109 70.514,32.409 70.664,32.579C70.734,32.659 70.804,32.699 70.904,32.699C71.064,32.699 71.194,32.579 71.194,32.409C71.194,32.339 71.174,32.289 71.124,32.219C70.964,31.999 70.474,31.529 69.584,31.529C68.294,31.529 67.524,32.289 67.524,33.929Z" style="fill:rgb(118,120,123);fill-rule:nonzero;"/>
        <path d="M71.935,33.929C71.935,35.609 72.765,36.339 74.095,36.339C74.985,36.339 75.505,35.929 75.655,35.779C75.715,35.719 75.765,35.659 75.765,35.549C75.765,35.389 75.635,35.259 75.475,35.259C75.395,35.259 75.355,35.279 75.295,35.319C75.015,35.529 74.675,35.749 74.095,35.749C73.155,35.749 72.585,35.109 72.585,34.119L75.505,34.119C75.905,34.119 75.905,33.769 75.905,33.479C75.905,32.799 75.595,31.529 73.995,31.529C72.695,31.529 71.935,32.389 71.935,33.929ZM75.275,33.559L72.585,33.559C72.645,32.669 73.125,32.109 73.995,32.109C75.025,32.109 75.275,32.839 75.275,33.559Z" style="fill:rgb(118,120,123);fill-rule:nonzero;"/>
        <path d="M79.525,31.669L79.135,31.669C78.965,31.669 78.835,31.799 78.835,31.969C78.835,32.139 78.965,32.269 79.135,32.269L79.525,32.269L79.525,35.029C79.525,35.759 79.955,36.289 80.745,36.289C80.915,36.289 81.055,36.159 81.055,35.989C81.055,35.819 80.915,35.689 80.745,35.689C80.405,35.689 80.165,35.459 80.165,35.029L80.165,32.269L80.815,32.269C80.985,32.269 81.115,32.139 81.115,31.969C81.115,31.799 80.985,31.669 80.815,31.669L80.165,31.669L80.165,30.619C80.165,30.449 80.025,30.299 79.845,30.299C79.675,30.299 79.525,30.449 79.525,30.619L79.525,31.669Z" style="fill:rgb(118,120,123);fill-rule:nonzero;"/>
        <path d="M84.035,31.529C83.385,31.529 82.895,31.849 82.705,32.229L82.705,29.409C82.705,29.229 82.565,29.089 82.385,29.089C82.205,29.089 82.065,29.229 82.065,29.409L82.065,35.969C82.065,36.149 82.205,36.289 82.385,36.289C82.565,36.289 82.705,36.149 82.705,35.969L82.705,33.499C82.705,32.699 83.045,32.099 84.035,32.099C85.005,32.099 85.235,32.639 85.235,33.429L85.235,35.969C85.235,36.149 85.375,36.289 85.555,36.289C85.735,36.289 85.875,36.149 85.875,35.969L85.875,33.299C85.875,32.449 85.575,31.529 84.035,31.529Z" style="fill:rgb(118,120,123);fill-rule:nonzero;"/>
        <path d="M87.714,31.909C87.714,31.729 87.574,31.589 87.394,31.589C87.214,31.589 87.074,31.729 87.074,31.909L87.074,35.969C87.074,36.149 87.214,36.289 87.394,36.289C87.574,36.289 87.714,36.149 87.714,35.969L87.714,33.729C87.714,32.809 88.184,32.169 89.104,32.169C89.274,32.169 89.414,32.029 89.414,31.859C89.414,31.689 89.274,31.549 89.104,31.549C88.414,31.549 87.914,31.889 87.714,32.349L87.714,31.909Z" style="fill:rgb(118,120,123);fill-rule:nonzero;"/>
        <path d="M91.914,31.529C90.624,31.529 89.814,32.289 89.814,33.929C89.814,35.569 90.624,36.339 91.914,36.339C93.214,36.339 94.014,35.569 94.014,33.929C94.014,32.289 93.214,31.529 91.914,31.529ZM91.914,35.759C90.994,35.759 90.464,35.209 90.464,33.929C90.464,32.669 90.994,32.109 91.914,32.109C92.834,32.109 93.364,32.669 93.364,33.929C93.364,35.209 92.834,35.759 91.914,35.759Z" style="fill:rgb(118,120,123);fill-rule:nonzero;"/>
        <path d="M95.235,31.589C95.055,31.589 94.915,31.729 94.915,31.909L94.915,34.519C94.915,35.469 95.235,36.339 96.775,36.339C98.325,36.339 98.635,35.469 98.635,34.519L98.635,31.909C98.635,31.729 98.495,31.589 98.325,31.589C98.145,31.589 97.995,31.729 97.995,31.909L97.995,34.519C97.995,35.169 97.785,35.729 96.775,35.729C95.765,35.729 95.555,35.169 95.555,34.519L95.555,31.909C95.555,31.729 95.405,31.589 95.235,31.589Z" style="fill:rgb(118,120,123);fill-rule:nonzero;"/>
        <path d="M102.955,34.949C102.955,34.949 102.545,35.759 101.605,35.759C100.685,35.759 100.175,35.169 100.175,33.939C100.175,32.689 100.685,32.109 101.605,32.109C102.355,32.109 102.955,32.559 102.955,33.509L102.955,34.949ZM101.555,37.619C100.925,37.619 100.605,37.379 100.375,37.149C100.285,37.059 100.215,37.039 100.135,37.039C99.965,37.039 99.825,37.179 99.825,37.349C99.825,37.429 99.855,37.489 99.885,37.529C100.215,37.929 100.775,38.219 101.555,38.219C102.675,38.219 103.605,37.659 103.605,36.299L103.605,33.509C103.605,32.189 102.745,31.529 101.605,31.529C100.305,31.529 99.535,32.299 99.535,33.939C99.535,35.579 100.305,36.339 101.605,36.339C102.255,36.339 102.715,36.039 102.955,35.729L102.955,36.299C102.955,37.209 102.375,37.619 101.555,37.619Z" style="fill:rgb(118,120,123);fill-rule:nonzero;"/>
        <path d="M106.755,31.529C106.105,31.529 105.615,31.849 105.425,32.229L105.425,29.409C105.425,29.229 105.285,29.089 105.105,29.089C104.925,29.089 104.785,29.229 104.785,29.409L104.785,35.969C104.785,36.149 104.925,36.289 105.105,36.289C105.285,36.289 105.425,36.149 105.425,35.969L105.425,33.499C105.425,32.699 105.765,32.099 106.755,32.099C107.725,32.099 107.955,32.639 107.955,33.429L107.955,35.969C107.955,36.149 108.095,36.289 108.275,36.289C108.455,36.289 108.595,36.149 108.595,35.969L108.595,33.299C108.595,32.449 108.295,31.529 106.755,31.529Z" style="fill:rgb(118,120,123);fill-rule:nonzero;"/>
        <path d="M112.495,31.589C112.325,31.589 112.175,31.729 112.175,31.909L112.175,37.899C112.175,38.069 112.325,38.219 112.495,38.219C112.665,38.219 112.815,38.069 112.815,37.899L112.815,35.639C113.025,35.979 113.505,36.339 114.175,36.339C115.475,36.339 116.265,35.569 116.265,33.929C116.265,32.289 115.475,31.529 114.175,31.529C113.505,31.529 113.005,31.889 112.815,32.229L112.815,31.909C112.815,31.729 112.665,31.589 112.495,31.589ZM112.795,33.929C112.795,32.629 113.415,32.109 114.155,32.109C115.075,32.109 115.615,32.679 115.615,33.929C115.615,35.179 115.095,35.759 114.175,35.759C113.395,35.759 112.795,35.219 112.795,33.929Z" style="fill:rgb(118,120,123);fill-rule:nonzero;"/>
        <path d="M118.935,32.129C119.665,32.129 120.115,32.549 120.115,33.229L120.115,33.499L118.705,33.499C117.625,33.499 116.955,34.029 116.955,34.909C116.955,35.829 117.625,36.339 118.685,36.339C119.285,36.339 119.865,36.089 120.115,35.619L120.115,35.979C120.115,36.149 120.255,36.289 120.425,36.289C120.595,36.289 120.735,36.149 120.735,35.979L120.735,33.229C120.735,32.209 120.095,31.529 118.935,31.529C118.095,31.529 117.555,31.879 117.275,32.319C117.245,32.369 117.225,32.419 117.225,32.489C117.225,32.649 117.355,32.779 117.515,32.779C117.605,32.779 117.675,32.749 117.775,32.639C118.085,32.289 118.405,32.129 118.935,32.129ZM118.745,35.759C117.965,35.759 117.605,35.429 117.605,34.909C117.605,34.329 118.055,34.059 118.705,34.059L120.115,34.059L120.115,34.479C120.115,35.329 119.445,35.759 118.745,35.759Z" style="fill:rgb(118,120,123);fill-rule:nonzero;"/>
        <path d="M122.575,31.909C122.575,31.729 122.435,31.589 122.255,31.589C122.075,31.589 121.935,31.729 121.935,31.909L121.935,35.969C121.935,36.149 122.075,36.289 122.255,36.289C122.435,36.289 122.575,36.149 122.575,35.969L122.575,33.729C122.575,32.809 123.045,32.169 123.965,32.169C124.135,32.169 124.275,32.029 124.275,31.859C124.275,31.689 124.135,31.549 123.965,31.549C123.275,31.549 122.775,31.889 122.575,32.349L122.575,31.909Z" style="fill:rgb(118,120,123);fill-rule:nonzero;"/>
        <path d="M125.475,31.669L125.085,31.669C124.915,31.669 124.785,31.799 124.785,31.969C124.785,32.139 124.915,32.269 125.085,32.269L125.475,32.269L125.475,35.029C125.475,35.759 125.905,36.289 126.695,36.289C126.865,36.289 127.005,36.159 127.005,35.989C127.005,35.819 126.865,35.689 126.695,35.689C126.355,35.689 126.115,35.459 126.115,35.029L126.115,32.269L126.765,32.269C126.935,32.269 127.065,32.139 127.065,31.969C127.065,31.799 126.935,31.669 126.765,31.669L126.115,31.669L126.115,30.619C126.115,30.449 125.975,30.299 125.795,30.299C125.625,30.299 125.475,30.449 125.475,30.619L125.475,31.669Z" style="fill:rgb(118,120,123);fill-rule:nonzero;"/>
        <path d="M129.985,31.529C129.335,31.529 128.845,31.849 128.655,32.229L128.655,31.909C128.655,31.729 128.515,31.589 128.335,31.589C128.155,31.589 128.015,31.729 128.015,31.909L128.015,35.969C128.015,36.149 128.155,36.289 128.335,36.289C128.515,36.289 128.655,36.149 128.655,35.969L128.655,33.499C128.655,32.699 128.995,32.099 129.985,32.099C130.955,32.099 131.185,32.639 131.185,33.429L131.185,35.969C131.185,36.149 131.325,36.289 131.505,36.289C131.685,36.289 131.825,36.149 131.825,35.969L131.825,33.299C131.825,32.449 131.525,31.529 129.985,31.529Z" style="fill:rgb(118,120,123);fill-rule:nonzero;"/>
        <path d="M132.725,33.929C132.725,35.609 133.555,36.339 134.885,36.339C135.775,36.339 136.295,35.929 136.445,35.779C136.505,35.719 136.555,35.659 136.555,35.549C136.555,35.389 136.425,35.259 136.265,35.259C136.185,35.259 136.145,35.279 136.085,35.319C135.805,35.529 135.465,35.749 134.885,35.749C133.945,35.749 133.375,35.109 133.375,34.119L136.295,34.119C136.695,34.119 136.695,33.769 136.695,33.479C136.695,32.799 136.385,31.529 134.785,31.529C133.485,31.529 132.725,32.389 132.725,33.929ZM136.065,33.559L133.375,33.559C133.435,32.669 133.915,32.109 134.785,32.109C135.815,32.109 136.065,32.839 136.065,33.559Z" style="fill:rgb(118,120,123);fill-rule:nonzero;"/>
        <path d="M138.325,31.909C138.325,31.729 138.185,31.589 138.005,31.589C137.825,31.589 137.685,31.729 137.685,31.909L137.685,35.969C137.685,36.149 137.825,36.289 138.005,36.289C138.185,36.289 138.325,36.149 138.325,35.969L138.325,33.729C138.325,32.809 138.795,32.169 139.715,32.169C139.885,32.169 140.025,32.029 140.025,31.859C140.025,31.689 139.885,31.549 139.715,31.549C139.025,31.549 138.525,31.889 138.325,32.349L138.325,31.909Z" style="fill:rgb(118,120,123);fill-rule:nonzero;"/>
        <path d="M142.145,32.149C142.665,32.149 142.965,32.309 143.235,32.569C143.315,32.649 143.395,32.659 143.445,32.659C143.605,32.659 143.735,32.529 143.735,32.369C143.735,32.279 143.695,32.219 143.665,32.179C143.355,31.769 142.825,31.539 142.145,31.539C141.295,31.539 140.615,31.919 140.615,32.749C140.615,34.389 143.245,33.979 143.245,35.009C143.245,35.529 142.755,35.719 142.185,35.719C141.625,35.719 141.225,35.539 140.915,35.229C140.835,35.149 140.755,35.129 140.695,35.129C140.535,35.129 140.405,35.259 140.405,35.419C140.405,35.489 140.425,35.539 140.475,35.609C140.735,35.939 141.365,36.329 142.185,36.329C143.135,36.329 143.885,35.919 143.885,35.009C143.885,33.409 141.255,33.799 141.255,32.749C141.255,32.289 141.695,32.149 142.145,32.149Z" style="fill:rgb(118,120,123);fill-rule:nonzero;"/>
        <path d="M146.935,31.529C146.285,31.529 145.795,31.849 145.605,32.229L145.605,29.409C145.605,29.229 145.465,29.089 145.285,29.089C145.105,29.089 144.965,29.229 144.965,29.409L144.965,35.969C144.965,36.149 145.105,36.289 145.285,36.289C145.465,36.289 145.605,36.149 145.605,35.969L145.605,33.499C145.605,32.699 145.945,32.099 146.935,32.099C147.905,32.099 148.135,32.639 148.135,33.429L148.135,35.969C148.135,36.149 148.275,36.289 148.455,36.289C148.635,36.289 148.775,36.149 148.775,35.969L148.775,33.299C148.775,32.449 148.475,31.529 146.935,31.529Z" style="fill:rgb(118,120,123);fill-rule:nonzero;"/>
        <path d="M150.605,31.909C150.605,31.729 150.465,31.589 150.285,31.589C150.105,31.589 149.965,31.729 149.965,31.909L149.965,35.969C149.965,36.149 150.105,36.289 150.285,36.289C150.465,36.289 150.605,36.149 150.605,35.969L150.605,31.909ZM150.285,30.649C150.525,30.649 150.665,30.509 150.665,30.269C150.665,29.979 150.525,29.869 150.285,29.869C150.045,29.869 149.905,29.979 149.905,30.269C149.905,30.509 150.045,30.649 150.285,30.649Z" style="fill:rgb(118,120,123);fill-rule:nonzero;"/>
        <path d="M152.225,31.589C152.055,31.589 151.905,31.729 151.905,31.909L151.905,37.899C151.905,38.069 152.055,38.219 152.225,38.219C152.395,38.219 152.545,38.069 152.545,37.899L152.545,35.639C152.755,35.979 153.235,36.339 153.905,36.339C155.205,36.339 155.995,35.569 155.995,33.929C155.995,32.289 155.205,31.529 153.905,31.529C153.235,31.529 152.735,31.889 152.545,32.229L152.545,31.909C152.545,31.729 152.395,31.589 152.225,31.589ZM152.525,33.929C152.525,32.629 153.145,32.109 153.885,32.109C154.805,32.109 155.345,32.679 155.345,33.929C155.345,35.179 154.825,35.759 153.905,35.759C153.125,35.759 152.525,35.219 152.525,33.929Z" style="fill:rgb(118,120,123);fill-rule:nonzero;"/>
    </g>
</svg>
