<?xml version="1.0" standalone="no"?>
<!DOCTYPE svg PUBLIC "-//W3C//DTD SVG 20010904//EN"
 "http://www.w3.org/TR/2001/REC-SVG-20010904/DTD/svg10.dtd">
<svg version="1.0" xmlns="http://www.w3.org/2000/svg"
 width="225.000000pt" height="68.000000pt" viewBox="0 0 225.000000 68.000000"
 preserveAspectRatio="xMidYMid meet">

<g transform="translate(0.000000,68.000000) scale(0.100000,-0.100000)"
fill="#000000" stroke="none">
<path d="M40 345 l0 -295 350 0 350 0 0 295 0 295 -350 0 -350 0 0 -295z m239
191 c81 -42 75 -178 -10 -221 -15 -8 -52 -18 -83 -21 l-56 -7 0 -78 c0 -78 0
-79 -25 -79 l-25 0 0 216 0 217 83 -5 c49 -3 97 -12 116 -22z m395 14 c18 -7
26 -17 26 -35 0 -22 -2 -24 -26 -15 -43 17 -126 12 -158 -9 -87 -58 -100 -205
-24 -278 27 -25 36 -28 101 -28 40 0 80 4 90 9 14 7 17 4 17 -17 0 -22 -7 -28
-37 -36 -84 -24 -163 -8 -210 41 -106 110 -73 298 62 359 44 20 119 25 159 9z"/>
<path d="M130 424 l0 -86 55 4 c71 6 95 27 95 84 0 57 -32 84 -101 84 l-49 0
0 -86z"/>
<path d="M810 625 c0 -13 85 -15 705 -15 620 0 705 2 705 15 0 13 -85 15 -705
15 -620 0 -705 -2 -705 -15z"/>
<path d="M850 330 c0 -112 16 -155 22 -57 l3 52 43 3 c56 4 54 22 -4 22 -45 0
-45 0 -42 33 3 31 4 32 56 35 75 4 65 22 -13 22 l-65 0 0 -110z"/>
<path d="M1010 359 c0 -113 16 -139 85 -139 69 0 85 26 85 139 0 65 -3 81 -15
81 -12 0 -15 -16 -15 -84 0 -92 -11 -116 -55 -116 -44 0 -55 24 -55 116 0 68
-3 84 -15 84 -12 0 -15 -16 -15 -81z"/>
<path d="M1210 431 c0 -6 17 -11 38 -13 l37 -3 3 -97 c1 -54 7 -98 12 -98 5 0
11 44 12 98 l3 97 38 3 c73 6 35 22 -53 22 -49 0 -90 -4 -90 -9z"/>
<path d="M1420 352 c0 -113 11 -132 80 -132 69 0 80 19 80 132 0 52 -4 88 -10
88 -6 0 -10 -31 -10 -72 0 -94 -14 -123 -60 -123 -46 0 -60 29 -60 123 0 41
-4 72 -10 72 -6 0 -10 -36 -10 -88z"/>
<path d="M1640 330 c0 -91 3 -110 15 -110 11 0 15 12 15 45 0 38 3 45 19 45
11 0 36 -20 57 -45 20 -25 45 -45 56 -45 16 0 13 7 -21 47 -40 47 -40 48 -21
66 27 25 26 72 -2 91 -13 9 -43 16 -70 16 l-48 0 0 -110z m83 81 c50 -19 38
-66 -20 -77 l-33 -6 0 46 c0 49 7 54 53 37z"/>
<path d="M1850 330 l0 -110 70 0 c40 0 70 4 70 10 0 6 -25 10 -55 10 l-55 0 0
45 0 45 55 0 c30 0 55 5 55 10 0 6 -25 10 -55 10 l-55 0 0 35 0 35 55 0 c30 0
55 5 55 10 0 6 -30 10 -70 10 l-70 0 0 -110z"/>
<path d="M2051 421 c-43 -43 -15 -93 57 -105 49 -7 71 -36 46 -60 -19 -20 -60
-20 -96 -2 -26 14 -28 13 -28 -4 0 -23 19 -30 79 -30 56 0 81 21 81 68 0 36
-6 40 -68 56 -25 7 -50 19 -56 28 -23 37 46 64 96 37 17 -9 19 -8 16 8 -5 28
-100 31 -127 4z"/>
<path d="M810 65 c0 -13 85 -15 705 -15 620 0 705 2 705 15 0 13 -85 15 -705
15 -620 0 -705 -2 -705 -15z"/>
</g>
</svg>
