<svg width="261" height="28" viewBox="0 0 261 28" fill="none" xmlns="http://www.w3.org/2000/svg">
<path d="M167.37 18.1035C166.7 19.6424 165.752 20.9829 164.526 22.1174C163.3 23.252 161.869 24.1281 160.236 24.7422C158.599 25.3562 156.813 25.6633 154.883 25.6633C152.953 25.6633 151.126 25.3488 149.477 24.7235C147.829 24.0982 146.394 23.2182 145.168 22.0837C143.942 20.9492 142.994 19.6162 142.324 18.0885C141.654 16.5608 141.319 14.8909 141.319 13.0861C141.319 11.2814 141.654 9.58143 142.324 8.06498C142.994 6.54853 143.942 5.22304 145.168 4.08852C146.394 2.95399 147.821 2.07408 149.458 1.44878C150.97 0.87215 152.618 0.565123 154.403 0.520191C154.255 0.520191 154.103 0.512695 153.95 0.512695C151.868 0.512695 149.953 0.845933 148.206 1.51242C146.744 2.07033 145.438 2.82294 144.285 3.76276L144.06 3.54184C143.927 3.41079 143.714 3.41079 143.58 3.54184L142.968 4.14469C142.834 4.27574 142.834 4.4854 142.968 4.61645L143.15 4.7962C142.073 5.90077 141.22 7.15885 140.596 8.5742C140.006 9.90718 139.663 11.3525 139.56 12.9139H139.001C138.814 12.9139 138.662 13.0637 138.662 13.2471V14.6587C138.662 14.8422 138.814 14.992 139.001 14.992H139.564C139.675 16.5122 140.013 17.9388 140.596 19.2605C141.213 20.6609 142.046 21.9077 143.097 22.9973L142.739 23.398C142.617 23.5365 142.629 23.7462 142.77 23.866L143.976 24.9107C144.117 25.0305 144.33 25.0193 144.452 24.8807L144.806 24.4876C145.83 25.2402 146.969 25.858 148.225 26.3335C149.652 26.8764 151.187 27.191 152.831 27.2958V27.6665C152.831 27.85 152.983 27.9997 153.17 27.9997H154.799C154.986 27.9997 155.138 27.85 155.138 27.6665V27.2958C156.76 27.1947 158.283 26.8839 159.699 26.3522C161.016 25.858 162.208 25.2065 163.277 24.394L163.414 24.5512C163.536 24.6898 163.749 24.7085 163.89 24.5887L164.499 24.0757C164.64 23.9559 164.659 23.7462 164.537 23.6077L164.397 23.4429C165.645 22.2597 166.616 20.8706 167.309 19.2792C168.024 17.6355 168.382 15.8532 168.382 13.9286C168.382 13.7863 168.375 13.6478 168.371 13.5092C168.321 15.1567 167.994 16.6956 167.373 18.1147L167.37 18.1035Z" fill="#0085FF"/>
<path d="M168.414 12.6296H168.395C168.395 12.6296 168.395 12.6221 168.395 12.6184C168.395 12.4911 168.391 12.3675 168.387 12.2402C168.346 13.7304 168.083 15.1345 167.523 16.4188L167.135 17.3587C166.484 18.789 165.555 20.0096 164.413 21.073C163.271 22.1364 161.935 22.9527 160.404 23.5293C158.878 24.1022 157.21 24.3905 155.406 24.3905C153.601 24.3905 151.9 24.0984 150.362 23.5143C148.824 22.9302 147.48 22.1065 146.338 21.0431C145.196 19.9797 144.309 18.7328 143.685 17.3025C143.056 15.8722 142.744 14.3108 142.744 12.6184C142.744 10.9259 143.056 9.33832 143.685 7.91922C144.313 6.50012 145.196 5.25701 146.338 4.19737C147.48 3.13398 148.816 2.31024 150.347 1.72613C150.487 1.67371 150.628 1.62502 150.769 1.57634C150.952 1.49771 151.131 1.40787 151.321 1.33672C152.684 0.81252 154.173 0.53544 155.783 0.494253C155.661 0.494253 155.539 0.486757 155.414 0.486757V0.33325C155.414 0.149778 155.261 0 155.075 0H154.561C154.374 0 154.222 0.149778 154.222 0.33325V0.505474H154.565C152.996 0.58036 151.534 0.872412 150.191 1.38913C148.614 1.99196 147.24 2.84194 146.06 3.93528C144.88 5.02862 143.97 6.30918 143.323 7.77321C142.676 9.23724 142.356 10.851 142.356 12.6184C142.356 14.3857 142.68 15.9695 143.323 17.4448C143.97 18.92 144.88 20.2043 146.06 21.2977C147.236 22.391 148.622 23.241 150.206 23.8438C151.793 24.4467 153.525 24.7499 155.406 24.7499C157.287 24.7499 158.981 24.4541 160.557 23.8625C162.133 23.2709 163.507 22.4285 164.687 21.3314C165.863 20.238 166.777 18.9463 167.424 17.4598C167.984 16.1717 168.3 14.7863 168.376 13.3073V13.4833H168.414C168.601 13.4833 168.753 13.3335 168.753 13.15V12.9591C168.753 12.7756 168.601 12.6258 168.414 12.6258V12.6296Z" fill="#0085FF"/>
<path d="M147.75 15.9021C147.698 16.0254 147.624 16.1232 147.512 16.176C147.401 16.2325 147.239 16.232 147.086 16.2449C146.7 16.2581 146.402 16.566 146.471 16.947C146.535 17.43 147.217 17.6623 147.533 17.2768C147.731 17.1098 147.697 16.7203 147.821 16.5168C147.887 16.4092 147.997 16.349 148.125 16.3157C148.412 16.2754 148.566 16.0822 148.752 15.9316C153.73 11.6939 159.713 6.5681 164.627 2.24018C165.165 1.75412 164.433 0.983764 163.9 1.43859L159.543 5.24014C156.186 8.19355 151.524 12.3641 148.21 15.3312C148.033 15.4952 147.826 15.624 147.749 15.8984L147.75 15.9021Z" fill="#0085FF"/>
<path d="M168.992 4.98251L163.999 7.929C160.147 10.2236 154.782 13.475 150.968 15.7934C150.766 15.9245 150.535 16.0117 150.408 16.2663C150.335 16.3802 150.243 16.4636 150.121 16.4906C150.002 16.525 149.842 16.4946 149.692 16.4813C149.31 16.426 148.956 16.6745 148.954 17.0599C148.927 17.5468 149.555 17.8986 149.937 17.5772C150.161 17.4467 150.201 17.0602 150.365 16.8841C150.449 16.791 150.567 16.753 150.703 16.7418C150.993 16.7549 151.181 16.5955 151.392 16.4778C157.08 13.2149 163.92 9.26261 169.56 5.89542C170.18 5.51402 169.607 4.62363 168.997 4.97245L168.992 4.98251Z" fill="#0085FF"/>
<path d="M10.743 27.2885C9.28879 27.2885 7.87643 27.1612 6.49834 26.9065C5.12025 26.6519 3.87921 26.3112 2.77141 25.8881C1.66361 25.465 0.738535 24.9857 0 24.4503L2.48589 19.9047C3.30057 20.4626 4.19518 20.9418 5.16213 21.3425C6.12908 21.7431 7.13029 22.0464 8.16576 22.2524C9.19742 22.4583 10.2481 22.5631 11.3217 22.5631C12.4675 22.5631 13.4573 22.447 14.2872 22.2186C15.1171 21.9902 15.7453 21.6495 16.1792 21.2002C16.6132 20.7509 16.8302 20.2229 16.8302 19.6201C16.8302 19.0173 16.5942 18.5305 16.1221 18.1636C15.6501 17.8004 15.0258 17.4896 14.2492 17.235C13.4725 16.9803 12.6046 16.7332 11.6491 16.4898C10.6935 16.2465 9.74181 15.9619 8.80151 15.6361C7.8574 15.3104 6.98943 14.8948 6.20141 14.4005C5.40957 13.9025 4.78144 13.266 4.30939 12.4909C3.83733 11.7158 3.60131 10.746 3.60131 9.58157C3.60131 7.83671 4.10381 6.31652 5.11264 5.01724C6.12146 3.72171 7.54143 2.72199 9.37634 2.01806C11.2113 1.31413 13.366 0.962158 15.8404 0.962158C17.6487 0.962158 19.358 1.14562 20.9645 1.50881C22.571 1.87201 23.9605 2.41868 25.133 3.14508L22.7613 7.65326C21.7411 7.02421 20.599 6.53744 19.3389 6.19671C18.0751 5.85598 16.796 5.68749 15.494 5.68749C14.2948 5.68749 13.2708 5.82229 12.4142 6.08813C11.5615 6.35398 10.9105 6.72465 10.4651 7.19644C10.0197 7.66822 9.78368 8.20741 9.75703 8.81399C9.75703 9.39435 10.0007 9.88112 10.4841 10.2705C10.9676 10.6599 11.6072 10.9782 12.3952 11.2328C13.1832 11.4874 14.0512 11.742 14.9953 11.9967C15.9394 12.2513 16.8835 12.5283 17.8238 12.8316C18.7679 13.1349 19.6321 13.5281 20.4239 14.0149C21.2157 14.5016 21.8515 15.1194 22.335 15.8683C22.8184 16.6209 23.0621 17.542 23.0621 18.6316C23.0621 20.3765 22.552 21.9004 21.5317 23.1959C20.5115 24.4952 19.0763 25.4987 17.2299 26.2139C15.3798 26.929 13.2213 27.2885 10.7468 27.2885H10.743Z" fill="#0085FF"/>
<path d="M246.61 27.2885C245.155 27.2885 243.743 27.1612 242.365 26.9065C240.987 26.6519 239.746 26.3112 238.638 25.8881C237.53 25.465 236.605 24.9857 235.867 24.4503L238.353 19.9047C239.167 20.4626 240.062 20.9418 241.029 21.3425C241.996 21.7431 242.997 22.0464 244.032 22.2524C245.064 22.4583 246.115 22.5631 247.188 22.5631C248.334 22.5631 249.324 22.447 250.154 22.2186C250.984 21.9902 251.612 21.6495 252.046 21.2002C252.48 20.7509 252.697 20.2229 252.697 19.6201C252.697 19.0173 252.461 18.5305 251.989 18.1636C251.517 17.8004 250.892 17.4896 250.116 17.235C249.339 16.9803 248.471 16.7332 247.516 16.4898C246.56 16.2465 245.609 15.9619 244.668 15.6361C243.724 15.3104 242.856 14.8948 242.068 14.4005C241.276 13.9025 240.648 13.266 240.176 12.4909C239.704 11.7158 239.468 10.746 239.468 9.58157C239.468 7.83671 239.971 6.31652 240.979 5.01724C241.988 3.72171 243.408 2.72199 245.243 2.01806C247.078 1.31413 249.233 0.962158 251.707 0.962158C253.515 0.962158 255.225 1.14562 256.831 1.50881C258.438 1.87201 259.827 2.41868 261 3.14508L258.628 7.65326C257.608 7.02421 256.466 6.53744 255.206 6.19671C253.942 5.85598 252.663 5.68749 251.361 5.68749C250.162 5.68749 249.137 5.82229 248.281 6.08813C247.428 6.35398 246.777 6.72465 246.332 7.19644C245.886 7.66822 245.65 8.20741 245.624 8.81399C245.624 9.39435 245.867 9.88112 246.351 10.2705C246.834 10.6599 247.474 10.9782 248.262 11.2328C249.05 11.4874 249.918 11.742 250.862 11.9967C251.806 12.2513 252.75 12.5283 253.691 12.8316C254.635 13.1349 255.499 13.5281 256.291 14.0149C257.082 14.5016 257.718 15.1194 258.202 15.8683C258.685 16.6209 258.929 17.542 258.929 18.6316C258.929 20.3765 258.419 21.9004 257.398 23.1959C256.378 24.4952 254.943 25.4987 253.097 26.2139C251.247 26.929 249.088 27.2885 246.614 27.2885H246.61Z" fill="#0085FF"/>
<path d="M24.7144 27.2885L30.0668 0.958435H35.1909L46.7029 20.0283L44.6776 19.9159L48.5416 0.958435H54.6212L49.2687 27.2885H44.1827L32.6327 8.21868L34.696 8.331L30.832 27.2885H24.7144Z" fill="#0085FF"/>
<path d="M52.5311 27.2885L69.8144 0.958435H75.932L82.5484 27.2885H76.3546L71.1163 3.96886H73.6022L59.1475 27.2885H52.5311ZM59.6424 21.6458L62.2044 17.0178H76.0082L76.7353 21.6458H59.6424Z" fill="#0085FF"/>
<path d="M85.7953 27.2885L91.1478 0.958435H102.047C105.385 0.958435 107.967 1.68108 109.79 3.12264C111.614 4.5642 112.523 6.55245 112.523 9.08361C112.523 11.3152 111.994 13.2398 110.936 14.8573C109.878 16.4749 108.374 17.7218 106.425 18.5979C104.476 19.4778 102.173 19.9159 99.5229 19.9159H90.8051L94.0562 17.2462L92.031 27.2885H85.7991H85.7953ZM93.904 17.9614L91.7645 15.0633H99.7551C101.796 15.0633 103.387 14.6065 104.537 13.6891C105.682 12.7755 106.257 11.45 106.257 9.72013C106.257 8.41711 105.823 7.45856 104.955 6.84075C104.087 6.22668 102.854 5.91966 101.247 5.91966H93.7136L96.9647 2.94667L93.904 17.9539V17.9614ZM103.044 27.2885L97.5776 17.7367H104.042L109.588 27.2885H103.048H103.044Z" fill="#0085FF"/>
<path d="M119.997 22.3984H134.566L133.611 27.2885H112.844L118.196 0.958435H138.822L137.867 5.84852H123.359L119.993 22.3984H119.997ZM121.756 11.5286H134.642L133.687 16.3064H120.8L121.756 11.5286Z" fill="#0085FF"/>
<path d="M168.557 27.2885L173.909 0.958435H186.834C189.738 0.958435 191.965 1.47141 193.507 2.50109C195.049 3.53078 195.822 5.02103 195.822 6.97556C195.822 8.63055 195.38 10.0234 194.501 11.1505C193.621 12.2775 192.46 13.1312 191.021 13.7078C189.582 14.2845 187.979 14.5728 186.221 14.5728L187.252 13.0676C189.495 13.0676 191.288 13.5768 192.624 14.5915C193.96 15.6062 194.63 17.0553 194.63 18.9349C194.63 20.8146 194.112 22.3759 193.081 23.619C192.049 24.8584 190.621 25.7833 188.798 26.3824C186.974 26.9852 184.915 27.2847 182.623 27.2847H168.549L168.557 27.2885ZM175.63 22.698H182.973C184.683 22.698 186.019 22.3797 186.99 21.7394C187.957 21.0991 188.444 20.1556 188.444 18.9012C188.444 17.9239 188.086 17.2275 187.374 16.8119C186.658 16.4 185.68 16.1903 184.431 16.1903H176.323L177.202 11.7533H184.161C185.257 11.7533 186.186 11.6148 186.952 11.3377C187.717 11.0606 188.303 10.6412 188.71 10.0796C189.118 9.5142 189.323 8.83275 189.323 8.03146C189.323 7.15529 188.981 6.5225 188.292 6.13309C187.603 5.74368 186.636 5.54897 185.387 5.54897H179.117L175.637 22.7017L175.63 22.698Z" fill="#0085FF"/>
<path d="M196.424 27.2885L201.776 0.958435H207.97L202.617 27.2885H196.424Z" fill="#0085FF"/>
<path d="M221.758 27.2885C219.028 27.2885 216.672 26.8205 214.685 25.8881C212.698 24.9558 211.171 23.664 210.117 22.0165C209.058 20.369 208.529 18.4407 208.529 16.2353C208.529 14.0299 208.929 12.0641 209.732 10.1994C210.535 8.331 211.67 6.71344 213.135 5.34302C214.601 3.9726 216.348 2.90173 218.374 2.12291C220.399 1.34784 222.664 0.958435 225.161 0.958435C227.659 0.958435 229.672 1.34784 231.511 2.12291C233.346 2.89799 234.724 4.00257 235.642 5.4329L231.169 8.92259C230.506 7.97528 229.638 7.24515 228.568 6.72095C227.499 6.20049 226.223 5.93838 224.743 5.93838C223.262 5.93838 221.876 6.19298 220.65 6.70221C219.424 7.21144 218.374 7.91911 217.494 8.82898C216.615 9.73885 215.945 10.791 215.488 11.9929C215.027 13.1911 214.799 14.4829 214.799 15.8646C214.799 17.1489 215.084 18.2722 215.659 19.227C216.234 20.1855 217.087 20.9381 218.221 21.4811C219.356 22.0277 220.715 22.3011 222.295 22.3011C223.673 22.3011 224.96 22.0577 226.159 21.5747C227.358 21.0916 228.439 20.339 229.41 19.3206L233.042 22.8852C231.663 24.4353 230.019 25.5586 228.108 26.2476C226.197 26.9403 224.08 27.2847 221.758 27.2847V27.2885Z" fill="#0085FF"/>
</svg>
