<svg width="242" height="42" viewBox="0 0 242 42" fill="none" xmlns="http://www.w3.org/2000/svg">
<path d="M3.84855 40.9764C2.55887 31.3209 1.28285 21.7405 0 12.126H6.1413C6.95331 19.5092 7.76533 26.906 8.59099 34.3848C14.4252 28.0592 17.4618 20.4713 18.9834 12.126H24.3059C25.4796 19.5365 26.6464 26.947 27.8269 34.4121C33.1953 28.148 36.448 20.3483 37.1207 12.126H43.4872C43.2211 13.6886 43.0232 15.2376 42.7025 16.7592C41.1467 24.0246 37.8706 30.8107 33.1494 36.5479C31.9552 38.015 30.6041 39.3592 29.3145 40.7512C29.2039 40.866 29.0566 40.9384 28.8982 40.956H23.6918C23.6359 40.9519 23.5808 40.9404 23.528 40.9218C22.6204 35.5789 21.7129 30.236 20.7985 24.7634C20.6893 24.9954 20.6211 25.1319 20.5665 25.2684C18.1314 31.1408 14.4344 36.4057 9.73737 40.6898C9.54728 40.8535 9.3058 40.9452 9.055 40.9491C7.48556 40.9491 5.90929 40.9491 4.33985 40.9491L3.84855 40.9764Z" fill="white"/>
<path d="M117.51 0.102641C115.92 8.93246 114.331 17.7282 112.734 26.6399C113.641 26.2646 114.528 25.9575 115.361 25.5617C120.611 23.099 124.794 18.8217 127.139 13.518C127.207 13.3678 127.275 13.2109 127.33 13.0608C127.705 12.0986 127.705 12.0986 128.763 12.0986H134.31C132.404 17.6962 128.984 22.6561 124.43 26.4283C126.948 31.2049 129.459 35.9815 132.004 40.8058C131.82 40.8058 131.71 40.8058 131.594 40.8058C129.677 40.8058 127.76 40.8058 125.842 40.8058C125.72 40.8177 125.597 40.7886 125.494 40.7231C125.39 40.6576 125.311 40.5595 125.269 40.4441C123.558 37.0323 121.837 33.6205 120.103 30.2086L119.824 29.6696C119.08 30.0585 118.363 30.4543 117.64 30.8159C115.813 31.7386 113.903 32.488 111.935 33.0541C111.828 33.07 111.73 33.1231 111.657 33.2042C111.585 33.2852 111.543 33.3891 111.54 33.4976C111.164 35.8518 110.769 38.206 110.38 40.5601C110.38 40.6147 110.38 40.6693 110.325 40.7512H104.368C104.498 39.9733 104.627 39.1954 104.764 38.4243L106.893 26.3601L108.94 14.91C109.581 11.2707 110.22 7.63141 110.857 3.99213C111.076 2.77069 111.287 1.55608 111.492 0.334643C111.533 0.109462 111.608 -0.00653905 111.86 0.000284616H117.319C117.387 0.0098892 117.453 0.0258831 117.517 0.04805" fill="white"/>
<path d="M70.8637 25.3844C70.8227 24.9272 70.8091 24.4564 70.7408 24.0196C70.6063 22.8112 70.1984 21.6493 69.5482 20.6219C68.8979 19.5945 68.0224 18.7287 66.9878 18.0899C65.7553 17.3077 64.3487 16.8418 62.893 16.7335C61.4372 16.6252 59.9772 16.8778 58.6425 17.4689C56.7071 18.1646 55.0134 19.4036 53.7644 21.0375C52.5154 22.6714 51.764 24.6308 51.6005 26.6809C51.4329 27.8465 51.5148 29.0344 51.8406 30.166C52.1664 31.2977 52.7288 32.3472 53.4906 33.2452C55.5377 35.7017 58.3149 36.5342 61.4334 36.118C64.0257 35.7502 66.4012 34.4675 68.1306 32.5016C69.86 30.5357 70.8294 28.0161 70.8637 25.398V25.3844ZM62.5797 11.0683C69.2123 11.0069 74.8623 15.1216 76.3362 21.4608C77.7624 27.5134 76.1861 32.8563 71.7507 37.2507C69.1079 39.8343 65.669 41.4479 61.9929 41.8294C58.966 42.2897 55.8707 41.8135 53.1221 40.4647C51.1485 39.5382 49.4405 38.1289 48.1559 36.3673C46.8713 34.6056 46.0518 32.5485 45.773 30.3861C45.28 27.6496 45.507 24.8319 46.4317 22.2096C47.3565 19.5873 48.9472 17.2505 51.0477 15.4286C53.662 13.029 56.9868 11.5462 60.519 11.2048C61.2013 11.1297 61.8837 11.1024 62.5661 11.0479" fill="white"/>
<path d="M79.0178 40.7375C80.7055 31.1844 82.3887 21.6449 84.0673 12.1191H89.7037C89.4307 13.9751 89.1578 15.8038 88.8848 17.6258L88.9736 17.6804L89.2533 17.2846C91.0462 14.6083 93.6915 12.6171 96.7593 11.6346C98.1361 11.2105 99.5877 11.0861 101.017 11.2697C102.445 11.4533 103.818 11.9407 105.043 12.6991L102.123 18.4787C101.681 18.2257 101.225 17.9979 100.758 17.7964C99.6151 17.3541 98.3827 17.1927 97.1644 17.3257C95.9461 17.4587 94.7775 17.8822 93.7569 18.5606C91.2723 20.0923 89.2545 22.2752 87.9227 24.8725C87.6784 25.5115 87.529 26.1827 87.4792 26.865C86.6672 31.4164 85.862 35.9678 85.0363 40.5123C85.0143 40.5788 84.9759 40.6387 84.9246 40.6864C84.8733 40.7341 84.8108 40.7682 84.7429 40.7853C82.8664 40.7853 80.9967 40.7853 79.127 40.7853C79.127 40.7853 79.0724 40.7853 79.0178 40.7375Z" fill="white"/>
<path d="M154.87 11.4435C152.146 12.1044 149.702 13.6119 147.889 15.7492C147.343 16.3565 146.866 17.0184 146.279 17.7486C146.565 15.8106 146.838 13.9751 147.111 12.119H141.475C139.787 21.6722 138.102 31.2253 136.419 40.7784C138.377 40.7784 140.288 40.7784 142.205 40.7784C142.287 40.7784 142.43 40.6078 142.451 40.4986C143.27 35.9473 144.075 31.3959 144.894 26.8513C144.939 26.1685 145.089 25.4966 145.337 24.8588C146.661 22.2741 148.667 20.1009 151.137 18.5742C152.765 17.5026 154.731 17.07 156.658 17.3596C157.677 17.5165 158.645 17.9116 159.483 18.5128L162.389 12.7673C162.371 12.7289 162.345 12.6943 162.314 12.6649L162.13 12.5421C160.618 11.659 158.9 11.1884 157.149 11.1774C156.382 11.1794 155.617 11.2687 154.87 11.4435ZM204.56 20.3143C205.592 19.1136 206.875 18.1536 208.317 17.5017C209.76 16.8498 211.329 16.5218 212.912 16.5408C214.91 16.4743 216.862 17.1457 218.396 18.427C219.93 19.7082 220.939 21.5096 221.23 23.4873C221.264 23.7056 221.23 23.924 221.271 24.1696H202.458C202.865 22.7347 203.582 21.4068 204.56 20.2801V20.3143ZM208.545 11.6482C199.933 13.9341 194.659 22.1225 196.392 30.7135C197.49 36.1725 200.827 39.7481 206.204 41.3448C207.659 41.7666 209.166 41.9758 210.681 41.9657C212.11 41.9534 213.535 41.8118 214.938 41.5427C217.282 41.141 219.531 40.3081 221.571 39.0862C221.653 39.0376 221.724 38.9725 221.779 38.8949C221.834 38.8173 221.873 38.7291 221.892 38.6358C221.892 36.7661 221.81 34.8964 221.755 33.0336C221.747 32.9549 221.731 32.8772 221.708 32.8016C221.571 32.8834 221.469 32.938 221.373 33.0063C219.055 34.6074 216.417 35.6875 213.642 36.1725C211.671 36.5919 209.627 36.5169 207.692 35.9541C206.195 35.4612 204.872 34.5469 203.882 33.3208C202.892 32.0947 202.277 30.6089 202.11 29.0417H225.959C226.341 29.0417 226.491 28.9394 226.573 28.5572C227.072 26.46 227.151 24.2846 226.805 22.1567C226.495 20.1033 225.688 18.1566 224.455 16.4858C223.222 14.815 221.6 13.4706 219.729 12.5694C217.711 11.5505 215.479 11.0265 213.219 11.0409C211.641 11.0525 210.07 11.2634 208.545 11.6687V11.6482ZM168.879 21.7063C169.772 20.2099 171.021 18.9577 172.515 18.0612C174.009 17.1647 175.702 16.6517 177.442 16.5681C178.606 16.4387 179.784 16.554 180.9 16.9065C182.016 17.2591 183.047 17.8411 183.925 18.6152C184.723 19.3183 185.372 20.1748 185.833 21.1337C186.293 22.0926 186.557 23.1343 186.607 24.1969H167.685C168.039 23.3486 168.437 22.5196 168.879 21.7131V21.7063ZM172.912 11.9553C168.917 13.1826 165.545 15.8961 163.492 19.5361C161.439 23.1761 160.861 27.4651 161.878 31.5187C163.413 37.5577 168.394 41.4267 174.522 41.8975C176.346 42.0284 178.18 41.9321 179.981 41.6109C182.464 41.2172 184.848 40.3484 187.002 39.052C187.07 39.0054 187.126 38.9446 187.167 38.8739C187.209 38.8031 187.234 38.7242 187.241 38.6426C187.207 36.7866 187.153 34.9374 187.105 33.0882C187.105 33.0063 187.071 32.9244 187.05 32.8016C186.798 32.9653 186.593 33.1155 186.368 33.2451C183.391 35.2449 179.908 36.3572 176.323 36.4522C174.492 36.5372 172.678 36.0611 171.124 35.0875C170.114 34.4176 169.263 33.5359 168.629 32.5035C167.995 31.4712 167.594 30.3132 167.453 29.11H191.786C191.827 28.9803 191.874 28.8916 191.895 28.7892C192.441 26.6417 192.536 24.4043 192.175 22.2181C191.839 19.9723 190.909 17.8571 189.481 16.0912C188.053 14.3253 186.18 12.9728 184.055 12.1736C182.29 11.4506 180.4 11.082 178.493 11.0887C176.606 11.1059 174.732 11.4144 172.939 12.003L172.912 11.9553ZM235.764 0.477873C234.932 5.17938 234.086 9.87406 233.267 14.5756C232.198 20.5167 231.149 26.4897 230.121 32.4945C229.847 33.8121 229.801 35.1668 229.985 36.5C230.086 37.4509 230.45 38.3547 231.037 39.1095C231.624 39.8643 232.411 40.44 233.308 40.7716C234.571 41.2097 235.922 41.3361 237.245 41.1401C238.05 41.0445 238.855 40.8603 239.667 40.717C239.545 39.1612 239.435 37.6873 239.319 36.2202C238.76 36.2543 238.241 36.3226 237.723 36.3089C237.327 36.3135 236.942 36.1796 236.634 35.9304C236.326 35.6813 236.115 35.3324 236.037 34.9442C235.925 34.4798 235.897 33.9991 235.955 33.5249C236.29 31.3891 236.672 29.2601 237.047 27.1311L238.971 16.2542L240.896 5.33632L241.831 0.109395C241.784 0.0834531 241.733 0.0650363 241.68 0.0548096H236.065C235.792 0.0548096 235.764 0.218573 235.73 0.423283" fill="url(#paint0_linear_3240_30694)"/>
<defs>
<linearGradient id="paint0_linear_3240_30694" x1="136.419" y1="21.0035" x2="241.837" y2="21.0035" gradientUnits="userSpaceOnUse">
<stop stop-color="#00F0D1"/>
<stop offset="1" stop-color="#02B3EE"/>
</linearGradient>
</defs>
</svg>
